<svg viewBox="0 0 280 170" xmlns="http://www.w3.org/2000/svg"><rect width="280" height="170" rx="12" fill="#2A0A3E"/><circle cx="140" cy="78" r="46" fill="none" stroke="#FF3CAC" stroke-width="2"/><circle cx="107" cy="45" r="4" fill="#FF3CAC"/><circle cx="173" cy="45" r="4" fill="#FFCA3A"/><circle cx="140" cy="32" r="4" fill="#8AFF8A"/><circle cx="95" cy="68" r="3" fill="#FFCA3A"/><circle cx="185" cy="68" r="3" fill="#8AFF8A"/><circle cx="92" cy="93" r="3" fill="#8AFF8A"/><circle cx="188" cy="93" r="3" fill="#FF3CAC"/><circle cx="107" cy="111" r="4" fill="#FFCA3A"/><circle cx="173" cy="111" r="4" fill="#FF3CAC"/><circle cx="140" cy="124" r="4" fill="#FFCA3A"/><polygon points="140,56 144,71 159,71 147,80 151,95 140,86 129,95 133,80 121,71 136,71" fill="#FF3CAC" opacity="0.9"/><text x="140" y="143" text-anchor="middle" font-family="Arial,sans-serif" font-size="22" font-weight="700" fill="#ffffff" letter-spacing="6">CIRQ</text><text x="140" y="159" text-anchor="middle" font-family="Arial,sans-serif" font-size="8.5" fill="#FF3CAC" letter-spacing="3">LIVE EXPERIENCES</text></svg>