<svg viewBox="0 0 280 170" xmlns="http://www.w3.org/2000/svg"><rect width="280" height="170" rx="12" fill="#F5F0E8"/><circle cx="140" cy="90" r="52" fill="#D6C9A8" opacity="0.4"/><path d="M140 45 C175 60 185 95 140 120 C95 95 105 60 140 45 Z" fill="#5A8A5A"/><path d="M140 45 C140 45 140 82 140 120" stroke="#3A6A3A" stroke-width="1.5" fill="none"/><path d="M140 70 C155 72 162 80 158 88" stroke="#3A6A3A" stroke-width="1" fill="none"/><path d="M140 80 C124 83 117 93 121 101" stroke="#3A6A3A" stroke-width="1" fill="none"/><path d="M128 40 Q125 32 128 24" stroke="#A0896A" stroke-width="1.5" fill="none" stroke-linecap="round" opacity="0.7"/><path d="M140 37 Q137 29 140 21" stroke="#A0896A" stroke-width="1.5" fill="none" stroke-linecap="round" opacity="0.7"/><path d="M152 40 Q149 32 152 24" stroke="#A0896A" stroke-width="1.5" fill="none" stroke-linecap="round" opacity="0.7"/><text x="140" y="148" text-anchor="middle" font-family="Georgia,serif" font-size="20" font-weight="700" fill="#3A5A3A" letter-spacing="5">KORA</text><text x="140" y="164" text-anchor="middle" font-family="Arial,sans-serif" font-size="8.5" fill="#7A6A50" letter-spacing="3">HERBAL WELLNESS</text></svg>