<svg viewBox="0 0 280 170" xmlns="http://www.w3.org/2000/svg"><rect width="280" height="170" rx="12" fill="#0B3D6B"/><path d="M80 150 Q120 135 160 150 Q200 165 240 150 Q265 140 280 148" fill="none" stroke="#4DA8E0" stroke-width="2.5" stroke-linecap="round"/><path d="M80 160 Q120 145 160 160 Q200 175 240 160 Q265 150 280 158" fill="none" stroke="#4DA8E0" stroke-width="1.5" stroke-linecap="round" opacity="0.5"/><polygon points="160,65 160,145 100,145" fill="#ffffff" opacity="0.95"/><polygon points="160,75 160,145 215,145" fill="#4DA8E0" opacity="0.9"/><line x1="160" y1="60" x2="160" y2="148" stroke="#ffffff" stroke-width="2.5"/><path d="M95 148 Q160 158 225 148 L215 160 Q160 172 105 160 Z" fill="#D4A017"/><text x="140" y="195" text-anchor="middle" font-family="Georgia,serif" font-size="22" font-weight="700" fill="#ffffff" letter-spacing="8">VELA</text><text x="140" y="212" text-anchor="middle" font-family="Arial,sans-serif" font-size="9" fill="#4DA8E0" letter-spacing="4">LUXURY VOYAGES</text></svg>